<svg width="645" height="123" viewBox="0 0 645 123" fill="none" xmlns="http://www.w3.org/2000/svg">
<path d="M64.5 0L78.9812 42.4955H125.843L87.931 68.7591L102.412 111.255L64.5 84.9909L26.5879 111.255L41.069 68.7591L3.15686 42.4955H50.0188L64.5 0Z" fill="black"/>
<path d="M193.5 0L207.981 42.4955H254.843L216.931 68.7591L231.412 111.255L193.5 84.9909L155.588 111.255L170.069 68.7591L132.157 42.4955H179.019L193.5 0Z" fill="black"/>
<path d="M322.5 0L336.981 42.4955H383.843L345.931 68.7591L360.412 111.255L322.5 84.9909L284.588 111.255L299.069 68.7591L261.157 42.4955H308.019L322.5 0Z" fill="black"/>
<path d="M451.5 0L465.981 42.4955H512.843L474.931 68.7591L489.412 111.255L451.5 84.9909L413.588 111.255L428.069 68.7591L390.157 42.4955H437.019L451.5 0Z" fill="black"/>
<path d="M580.5 0L594.981 42.4955H641.843L603.931 68.7591L618.412 111.255L580.5 84.9909L542.588 111.255L557.069 68.7591L519.157 42.4955H566.019L580.5 0Z" fill="black"/>
</svg>
