<svg width="316" height="93" viewBox="0 0 316 93" fill="none" xmlns="http://www.w3.org/2000/svg">
<path d="M14.125 66.5625C14.125 70.1042 14.1667 73.2083 14.25 75.875C14.375 78.5 14.5 80.7708 14.625 82.6875C14.7917 84.6042 14.9792 86.2083 15.1875 87.5C15.4375 88.7917 15.6875 89.875 15.9375 90.75V91H0.9375V90.75C1.1875 89.875 1.41667 88.7917 1.625 87.5C1.875 86.2083 2.08333 84.6042 2.25 82.6875C2.41667 80.7708 2.54167 78.5 2.625 75.875C2.70833 73.2083 2.75 70.1042 2.75 66.5625V25.875C2.75 22.3333 2.70833 19.25 2.625 16.625C2.54167 13.9583 2.41667 11.6667 2.25 9.75C2.08333 7.79167 1.875 6.16667 1.625 4.875C1.41667 3.58333 1.1875 2.5 0.9375 1.625V1.375C1.77083 1.45833 2.64583 1.54167 3.5625 1.625C4.35417 1.70833 5.22917 1.77083 6.1875 1.8125C7.1875 1.8125 8.20833 1.8125 9.25 1.8125C10.875 1.8125 13.0625 1.625 15.8125 1.25C18.6042 0.833333 22.1458 0.625 26.4375 0.625C30.4375 0.625 34.125 1.16667 37.5 2.25C40.9167 3.33333 43.875 4.91667 46.375 7C48.875 9.08333 50.8125 11.6458 52.1875 14.6875C53.6042 17.6875 54.3125 21.1042 54.3125 24.9375C54.3125 27.9375 53.9167 30.7292 53.125 33.3125C52.375 35.8542 51.2917 38.1667 49.875 40.25C48.5 42.3333 46.8333 44.1875 44.875 45.8125C42.9167 47.3958 40.7292 48.7292 38.3125 49.8125L60.25 80.625C61.3333 82.1667 62.3333 83.5 63.25 84.625C64.2083 85.75 65.1042 86.7083 65.9375 87.5C66.8125 88.2917 67.6458 88.9583 68.4375 89.5C69.2292 90 70.0417 90.4167 70.875 90.75V91H52.8125C52.6875 90.2083 52.2708 89.1667 51.5625 87.875C50.8958 86.5417 50.1042 85.2292 49.1875 83.9375L27.0625 52.75C25.0208 52.9583 22.9167 53.0625 20.75 53.0625C18.5833 53.0625 16.375 52.875 14.125 52.5V66.5625ZM14.125 47.625C18.2083 48.375 21.9375 48.4792 25.3125 47.9375C28.7292 47.3958 31.6458 46.2083 34.0625 44.375C36.5208 42.5417 38.4167 40.0625 39.75 36.9375C41.125 33.7708 41.8125 29.9375 41.8125 25.4375C41.8125 22.3125 41.4583 19.4792 40.75 16.9375C40.0417 14.3958 38.9792 12.25 37.5625 10.5C36.1875 8.70833 34.4375 7.33333 32.3125 6.375C30.1875 5.375 27.7083 4.875 24.875 4.875C23.0833 4.875 21.5208 4.95833 20.1875 5.125C18.8542 5.25 17.7292 5.39583 16.8125 5.5625C15.7292 5.77083 14.8333 6 14.125 6.25V47.625ZM75.8125 23.8125C79.8958 23.8125 84.0833 23.8125 88.375 23.8125C92.6667 23.7708 96.6458 23.7292 100.312 23.6875C103.979 23.6042 107.125 23.5208 109.75 23.4375C112.417 23.3542 114.167 23.2292 115 23.0625L112.562 29.8125C111.438 29.5208 110.167 29.25 108.75 29C107.5 28.7917 105.979 28.6042 104.188 28.4375C102.438 28.2292 100.396 28.125 98.0625 28.125C97.2292 28.125 96.2708 28.1667 95.1875 28.25C94.1042 28.2917 93.0625 28.3542 92.0625 28.4375C90.8958 28.5208 89.7083 28.6042 88.5 28.6875V53.375C91.875 53.3333 94.9167 53.25 97.625 53.125C100.333 53 102.646 52.8333 104.562 52.625C106.812 52.4583 108.792 52.2292 110.5 51.9375L109 59.375C106.708 59.0833 104.396 58.8333 102.062 58.625C100.062 58.4167 97.8542 58.25 95.4375 58.125C93.0208 57.9583 90.7083 57.875 88.5 57.875V86.25C92.375 86.25 95.9375 86.1042 99.1875 85.8125C102.438 85.4792 105.271 85.125 107.688 84.75C110.521 84.2917 113.083 83.7708 115.375 83.1875L113.938 91.375C113.312 91.3333 112.292 91.2708 110.875 91.1875C109.5 91.1458 108.042 91.1042 106.5 91.0625C105 91.0625 103.583 91.0417 102.25 91C100.917 91 100 91 99.5 91H75.8125V90.75C76.1042 89.875 76.3542 88.75 76.5625 87.375C76.8125 86 77 84.3125 77.125 82.3125C77.2917 80.2708 77.4167 77.8542 77.5 75.0625C77.5833 72.2708 77.625 69 77.625 65.25V49.5C77.625 45.75 77.5833 42.5 77.5 39.75C77.4167 36.9583 77.2917 34.5625 77.125 32.5625C77 30.5208 76.8125 28.8125 76.5625 27.4375C76.3542 26.0625 76.1042 24.9375 75.8125 24.0625V23.8125ZM142 86.125C145.875 86.125 149.438 85.9792 152.688 85.6875C155.979 85.3542 158.854 85 161.312 84.625C164.188 84.1667 166.792 83.6458 169.125 83.0625L167.688 91.375C167.104 91.3333 166.104 91.2708 164.688 91.1875C163.312 91.1458 161.854 91.1042 160.312 91.0625C158.771 91.0625 157.333 91.0417 156 91C154.667 91 153.75 91 153.25 91H129.312V90.75C129.604 89.875 129.854 88.75 130.062 87.375C130.312 86 130.5 84.3125 130.625 82.3125C130.792 80.2708 130.917 77.8542 131 75.0625C131.083 72.2708 131.125 69 131.125 65.25V49.5C131.125 45.75 131.083 42.5 131 39.75C130.917 36.9583 130.792 34.5625 130.625 32.5625C130.5 30.5208 130.312 28.8125 130.062 27.4375C129.854 26.0625 129.604 24.9375 129.312 24.0625V23.8125H143.75V24.0625C143.458 24.9375 143.208 26.0625 143 27.4375C142.792 28.8125 142.604 30.5208 142.438 32.5625C142.312 34.5625 142.208 36.9583 142.125 39.75C142.042 42.5 142 45.75 142 49.5V86.125ZM231.375 49.25C231.375 45.5417 231.354 42.3125 231.312 39.5625C231.271 36.8125 231.188 34.4375 231.062 32.4375C230.938 30.4375 230.792 28.7708 230.625 27.4375C230.458 26.0625 230.25 24.9375 230 24.0625V23.8125H239.188V24.0625C238.938 24.9375 238.729 26.0625 238.562 27.4375C238.396 28.8125 238.25 30.5208 238.125 32.5625C238 34.5625 237.917 36.9583 237.875 39.75C237.833 42.5 237.812 45.75 237.812 49.5V67.4375C237.812 71.9375 237.104 75.7708 235.688 78.9375C234.312 82.1042 232.396 84.7083 229.938 86.75C227.479 88.75 224.542 90.2083 221.125 91.125C217.75 92.0833 214.042 92.5625 210 92.5625C205.917 92.5625 202.125 92.1042 198.625 91.1875C195.125 90.3125 192.083 88.8958 189.5 86.9375C186.958 84.9792 184.938 82.4375 183.438 79.3125C181.979 76.1875 181.25 72.3958 181.25 67.9375V49.5C181.25 45.75 181.208 42.5 181.125 39.75C181.042 36.9583 180.917 34.5625 180.75 32.5625C180.583 30.5208 180.396 28.8125 180.188 27.4375C179.979 26.0625 179.729 24.9375 179.438 24.0625V23.8125H193.875V24.0625C193.583 24.9375 193.333 26.0625 193.125 27.4375C192.917 28.7708 192.729 30.4375 192.562 32.4375C192.438 34.4375 192.333 36.8125 192.25 39.5625C192.167 42.3125 192.125 45.5417 192.125 49.25V67.9375C192.125 71.6458 192.688 74.7083 193.812 77.125C194.938 79.5 196.417 81.3958 198.25 82.8125C200.083 84.2292 202.167 85.2292 204.5 85.8125C206.833 86.3542 209.229 86.625 211.688 86.625C214.188 86.625 216.604 86.3542 218.938 85.8125C221.312 85.2292 223.417 84.2292 225.25 82.8125C227.125 81.3958 228.604 79.5 229.688 77.125C230.812 74.7083 231.375 71.6458 231.375 67.9375V49.25ZM279.75 62.3125L263.625 82.6875C263.042 83.3958 262.458 84.1458 261.875 84.9375C261.333 85.7292 260.833 86.5 260.375 87.25C259.917 88 259.542 88.7083 259.25 89.375C259 90 258.875 90.5417 258.875 91H248.25V90.75C248.958 90.0833 249.938 89.1667 251.188 88C252.438 86.7917 253.771 85.2708 255.188 83.4375L275.938 57.1875L255.562 29.8125C254.396 28.3542 253.271 27.1042 252.188 26.0625C251.104 24.9792 250.312 24.3125 249.812 24.0625V23.8125H267.625C267.625 24.5625 267.875 25.75 268.375 27.375C268.917 28.9583 269.979 30.8333 271.562 33L283.062 48.75L296.25 32.125C296.792 31.4167 297.333 30.6667 297.875 29.875C298.417 29.0833 298.896 28.3125 299.312 27.5625C299.729 26.8125 300.062 26.125 300.312 25.5C300.604 24.8333 300.75 24.2708 300.75 23.8125H311.25V24.0625C310.625 24.5208 309.854 25.2083 308.938 26.125C308.021 27.0417 306.833 28.4375 305.375 30.3125L287.062 53.625L309.062 83.4375C310.521 85.4375 311.896 87.0833 313.188 88.375C314.479 89.625 315.417 90.4167 316 90.75V91H298.312C298.312 90.2083 298.021 89.0208 297.438 87.4375C296.896 85.8125 295.833 83.9375 294.25 81.8125L279.75 62.3125Z" fill="black"/>
</svg>
